<mxfile host="app.diagrams.net" modified="2024-05-17T19:28:53.681Z" agent="Mozilla/5.0 (Windows NT 10.0; Win64; x64) AppleWebKit/537.36 (KHTML, like Gecko) Chrome/125.0.0.0 Safari/537.36" etag="qj2UklK952fTFhGPJDE9" version="24.4.4" type="device">
  <diagram name="Página-1" id="dLu3Cj4ZUkSmHfxKUNX0">
    <mxGraphModel dx="1216" dy="864" grid="1" gridSize="30" guides="1" tooltips="1" connect="1" arrows="1" fold="1" page="1" pageScale="1" pageWidth="1390" pageHeight="980" math="0" shadow="0">
      <root>
        <mxCell id="0" />
        <mxCell id="1" parent="0" />
        <mxCell id="49YnO6ZuOoB5fUJODNFg-46" value="M" style="text;strokeColor=#FFFFFF;fillColor=none;spacingLeft=4;spacingRight=4;overflow=hidden;rotatable=0;points=[[0,0.5],[1,0.5]];portConstraint=eastwest;fontSize=12;whiteSpace=wrap;html=1;" parent="1" vertex="1">
          <mxGeometry x="1012.5" y="120" width="40" height="30" as="geometry" />
        </mxCell>
        <mxCell id="dxbgblpdHtPkPgYJWyGq-2" value="USUARIO" style="rounded=1;whiteSpace=wrap;html=1;strokeColor=#00CC00;" parent="1" vertex="1">
          <mxGeometry x="180" y="450" width="180" height="40" as="geometry" />
        </mxCell>
        <mxCell id="dxbgblpdHtPkPgYJWyGq-3" value="LUGARES" style="rounded=1;whiteSpace=wrap;html=1;strokeColor=#003333;fillColor=#003333;" parent="1" vertex="1">
          <mxGeometry x="1012.5" y="150" width="180" height="40" as="geometry" />
        </mxCell>
        <mxCell id="dxbgblpdHtPkPgYJWyGq-4" value="BUSCA" style="rhombus;whiteSpace=wrap;html=1;strokeColor=#003333;fillColor=#003333;" parent="1" vertex="1">
          <mxGeometry x="882.5" y="280" width="130" height="80" as="geometry" />
        </mxCell>
        <mxCell id="FwYhcU4Iek7xrjwLhx-S-1" value="NEGOCIOS" style="rounded=1;whiteSpace=wrap;html=1;strokeColor=#CC6600;" parent="1" vertex="1">
          <mxGeometry x="700" y="450" width="180" height="40" as="geometry" />
        </mxCell>
        <mxCell id="FwYhcU4Iek7xrjwLhx-S-5" value="contraseña" style="ellipse;whiteSpace=wrap;html=1;strokeColor=#00CC00;" parent="1" vertex="1">
          <mxGeometry x="195" y="535" width="70" height="20" as="geometry" />
        </mxCell>
        <mxCell id="FwYhcU4Iek7xrjwLhx-S-7" value="id_negocio" style="ellipse;whiteSpace=wrap;html=1;strokeColor=#CC6600;" parent="1" vertex="1">
          <mxGeometry x="725" y="520" width="100" height="20" as="geometry" />
        </mxCell>
        <mxCell id="FwYhcU4Iek7xrjwLhx-S-9" value="id_user" style="ellipse;whiteSpace=wrap;html=1;strokeColor=#00CC00;" parent="1" vertex="1">
          <mxGeometry x="810" y="548.16" width="70" height="20" as="geometry" />
        </mxCell>
        <mxCell id="FwYhcU4Iek7xrjwLhx-S-16" value="nombre" style="ellipse;whiteSpace=wrap;html=1;strokeColor=#00CC00;" parent="1" vertex="1">
          <mxGeometry x="65" y="535" width="70" height="20" as="geometry" />
        </mxCell>
        <mxCell id="FwYhcU4Iek7xrjwLhx-S-17" value="apellido" style="ellipse;whiteSpace=wrap;html=1;strokeColor=#00CC00;" parent="1" vertex="1">
          <mxGeometry x="125" y="565" width="70" height="20" as="geometry" />
        </mxCell>
        <mxCell id="FwYhcU4Iek7xrjwLhx-S-18" value="id_user" style="ellipse;whiteSpace=wrap;html=1;strokeColor=#00CC00;" parent="1" vertex="1">
          <mxGeometry x="30" y="450" width="70" height="20" as="geometry" />
        </mxCell>
        <mxCell id="FwYhcU4Iek7xrjwLhx-S-39" value="INTERACTUA" style="rhombus;whiteSpace=wrap;html=1;strokeColor=#1FE9FF;" parent="1" vertex="1">
          <mxGeometry x="325" y="280" width="130" height="80" as="geometry" />
        </mxCell>
        <mxCell id="FwYhcU4Iek7xrjwLhx-S-41" value="id_notas" style="ellipse;whiteSpace=wrap;html=1;strokeColor=#3333FF;" parent="1" vertex="1">
          <mxGeometry x="300" y="790" width="70" height="20" as="geometry" />
        </mxCell>
        <mxCell id="FwYhcU4Iek7xrjwLhx-S-44" value="CONTRIBUCIONES" style="rounded=1;whiteSpace=wrap;html=1;strokeColor=#3333FF;" parent="1" vertex="1">
          <mxGeometry x="335" y="720" width="180" height="40" as="geometry" />
        </mxCell>
        <mxCell id="FwYhcU4Iek7xrjwLhx-S-45" value="ELABORA" style="rhombus;whiteSpace=wrap;html=1;strokeColor=#1FE9FF;" parent="1" vertex="1">
          <mxGeometry x="972.5" y="430" width="130" height="80" as="geometry" />
        </mxCell>
        <mxCell id="FwYhcU4Iek7xrjwLhx-S-46" value="PUBLICIDAD" style="rounded=1;whiteSpace=wrap;html=1;" parent="1" vertex="1">
          <mxGeometry x="947.5" y="600" width="180" height="40" as="geometry" />
        </mxCell>
        <mxCell id="49YnO6ZuOoB5fUJODNFg-27" value="N" style="text;strokeColor=none;fillColor=none;spacingLeft=4;spacingRight=4;overflow=hidden;rotatable=0;points=[[0,0.5],[1,0.5]];portConstraint=eastwest;fontSize=12;whiteSpace=wrap;html=1;" parent="1" vertex="1">
          <mxGeometry x="700" y="420" width="40" height="30" as="geometry" />
        </mxCell>
        <mxCell id="49YnO6ZuOoB5fUJODNFg-28" value="1" style="text;strokeColor=none;fillColor=none;spacingLeft=4;spacingRight=4;overflow=hidden;rotatable=0;points=[[0,0.5],[1,0.5]];portConstraint=eastwest;fontSize=12;whiteSpace=wrap;html=1;" parent="1" vertex="1">
          <mxGeometry x="180" y="420" width="40" height="30" as="geometry" />
        </mxCell>
        <mxCell id="49YnO6ZuOoB5fUJODNFg-34" value="M" style="text;strokeColor=none;fillColor=none;spacingLeft=4;spacingRight=4;overflow=hidden;rotatable=0;points=[[0,0.5],[1,0.5]];portConstraint=eastwest;fontSize=12;whiteSpace=wrap;html=1;" parent="1" vertex="1">
          <mxGeometry x="947.5" y="570" width="40" height="30" as="geometry" />
        </mxCell>
        <mxCell id="49YnO6ZuOoB5fUJODNFg-35" value="COMUNIDAD" style="rounded=1;whiteSpace=wrap;html=1;strokeColor=#7EA6E0;" parent="1" vertex="1">
          <mxGeometry x="570" y="300" width="180" height="40" as="geometry" />
        </mxCell>
        <mxCell id="49YnO6ZuOoB5fUJODNFg-36" value="id_publicidad" style="ellipse;whiteSpace=wrap;html=1;strokeColor=default;" parent="1" vertex="1">
          <mxGeometry x="915" y="670" width="105" height="20" as="geometry" />
        </mxCell>
        <mxCell id="49YnO6ZuOoB5fUJODNFg-39" value="id_negocio" style="ellipse;whiteSpace=wrap;html=1;strokeColor=#CC6600;" parent="1" vertex="1">
          <mxGeometry x="1002.5" y="710" width="100" height="20" as="geometry" />
        </mxCell>
        <mxCell id="49YnO6ZuOoB5fUJODNFg-42" value="" style="endArrow=none;html=1;rounded=0;entryX=0.115;entryY=1.033;entryDx=0;entryDy=0;entryPerimeter=0;exitX=0.5;exitY=0;exitDx=0;exitDy=0;strokeColor=#67AB9F;" parent="1" source="49YnO6ZuOoB5fUJODNFg-36" target="FwYhcU4Iek7xrjwLhx-S-46" edge="1">
          <mxGeometry width="50" height="50" relative="1" as="geometry">
            <mxPoint x="762.5" y="530" as="sourcePoint" />
            <mxPoint x="812.5" y="480" as="targetPoint" />
          </mxGeometry>
        </mxCell>
        <mxCell id="49YnO6ZuOoB5fUJODNFg-43" value="" style="endArrow=none;html=1;rounded=0;exitX=0.5;exitY=0;exitDx=0;exitDy=0;entryX=0.581;entryY=1.017;entryDx=0;entryDy=0;entryPerimeter=0;strokeColor=#67AB9F;" parent="1" source="49YnO6ZuOoB5fUJODNFg-39" target="FwYhcU4Iek7xrjwLhx-S-46" edge="1">
          <mxGeometry width="50" height="50" relative="1" as="geometry">
            <mxPoint x="762.5" y="530" as="sourcePoint" />
            <mxPoint x="812.5" y="480" as="targetPoint" />
          </mxGeometry>
        </mxCell>
        <mxCell id="49YnO6ZuOoB5fUJODNFg-44" value="" style="endArrow=none;html=1;rounded=0;exitX=0.5;exitY=0;exitDx=0;exitDy=0;entryX=0.904;entryY=1;entryDx=0;entryDy=0;entryPerimeter=0;strokeColor=#67AB9F;" parent="1" target="FwYhcU4Iek7xrjwLhx-S-46" edge="1" source="49YnO6ZuOoB5fUJODNFg-63">
          <mxGeometry width="50" height="50" relative="1" as="geometry">
            <mxPoint x="1150.9924999999998" y="690" as="sourcePoint" />
            <mxPoint x="1142.5" y="600" as="targetPoint" />
          </mxGeometry>
        </mxCell>
        <mxCell id="49YnO6ZuOoB5fUJODNFg-47" value="ABRE" style="rhombus;whiteSpace=wrap;html=1;strokeColor=#1FE9FF;" parent="1" vertex="1">
          <mxGeometry x="415" y="430" width="130" height="80" as="geometry" />
        </mxCell>
        <mxCell id="49YnO6ZuOoB5fUJODNFg-52" value="" style="endArrow=none;html=1;rounded=0;entryX=0.993;entryY=0.94;entryDx=0;entryDy=0;entryPerimeter=0;strokeColor=#67AB9F;exitX=0.228;exitY=0.147;exitDx=0;exitDy=0;exitPerimeter=0;" parent="1" source="49YnO6ZuOoB5fUJODNFg-62" target="FwYhcU4Iek7xrjwLhx-S-1" edge="1">
          <mxGeometry width="50" height="50" relative="1" as="geometry">
            <mxPoint x="900" y="510" as="sourcePoint" />
            <mxPoint x="920" y="480" as="targetPoint" />
          </mxGeometry>
        </mxCell>
        <mxCell id="49YnO6ZuOoB5fUJODNFg-53" value="" style="endArrow=none;html=1;rounded=0;exitX=0.5;exitY=0;exitDx=0;exitDy=0;entryX=0.476;entryY=1.046;entryDx=0;entryDy=0;entryPerimeter=0;strokeColor=#67AB9F;" parent="1" source="FwYhcU4Iek7xrjwLhx-S-9" edge="1">
          <mxGeometry width="50" height="50" relative="1" as="geometry">
            <mxPoint x="930" y="528.16" as="sourcePoint" />
            <mxPoint x="845.6800000000001" y="490.00000000000006" as="targetPoint" />
          </mxGeometry>
        </mxCell>
        <mxCell id="49YnO6ZuOoB5fUJODNFg-54" value="" style="endArrow=none;html=1;rounded=0;exitX=1;exitY=0;exitDx=0;exitDy=0;entryX=0.415;entryY=1.01;entryDx=0;entryDy=0;entryPerimeter=0;strokeColor=#67AB9F;" parent="1" target="FwYhcU4Iek7xrjwLhx-S-1" edge="1">
          <mxGeometry width="50" height="50" relative="1" as="geometry">
            <mxPoint x="774.3753390593315" y="519.9989321881337" as="sourcePoint" />
            <mxPoint x="775.6200000000001" y="486.95" as="targetPoint" />
          </mxGeometry>
        </mxCell>
        <mxCell id="49YnO6ZuOoB5fUJODNFg-56" value="" style="endArrow=none;html=1;rounded=0;entryX=0.3;entryY=1.003;entryDx=0;entryDy=0;entryPerimeter=0;exitX=0.542;exitY=0.005;exitDx=0;exitDy=0;exitPerimeter=0;strokeColor=#67AB9F;" parent="1" source="FwYhcU4Iek7xrjwLhx-S-5" target="dxbgblpdHtPkPgYJWyGq-2" edge="1">
          <mxGeometry width="50" height="50" relative="1" as="geometry">
            <mxPoint x="270" y="590" as="sourcePoint" />
            <mxPoint x="320" y="540" as="targetPoint" />
          </mxGeometry>
        </mxCell>
        <mxCell id="49YnO6ZuOoB5fUJODNFg-57" value="" style="endArrow=none;html=1;rounded=0;entryX=0.131;entryY=1.004;entryDx=0;entryDy=0;entryPerimeter=0;exitX=0.548;exitY=-0.019;exitDx=0;exitDy=0;exitPerimeter=0;strokeColor=#67AB9F;" parent="1" source="FwYhcU4Iek7xrjwLhx-S-17" target="dxbgblpdHtPkPgYJWyGq-2" edge="1">
          <mxGeometry width="50" height="50" relative="1" as="geometry">
            <mxPoint x="180" y="590" as="sourcePoint" />
            <mxPoint x="230" y="540" as="targetPoint" />
          </mxGeometry>
        </mxCell>
        <mxCell id="49YnO6ZuOoB5fUJODNFg-58" value="" style="endArrow=none;html=1;rounded=0;exitX=0.663;exitY=0.036;exitDx=0;exitDy=0;exitPerimeter=0;entryX=-0.003;entryY=0.671;entryDx=0;entryDy=0;entryPerimeter=0;strokeColor=#67AB9F;" parent="1" source="FwYhcU4Iek7xrjwLhx-S-16" target="dxbgblpdHtPkPgYJWyGq-2" edge="1">
          <mxGeometry width="50" height="50" relative="1" as="geometry">
            <mxPoint x="180" y="590" as="sourcePoint" />
            <mxPoint x="230" y="540" as="targetPoint" />
          </mxGeometry>
        </mxCell>
        <mxCell id="49YnO6ZuOoB5fUJODNFg-62" value="id_direccion" style="ellipse;whiteSpace=wrap;html=1;strokeColor=#99004D;" parent="1" vertex="1">
          <mxGeometry x="857.5" y="520" width="90" height="20" as="geometry" />
        </mxCell>
        <mxCell id="49YnO6ZuOoB5fUJODNFg-63" value="id_direccion" style="ellipse;whiteSpace=wrap;html=1;strokeColor=#99004D;" parent="1" vertex="1">
          <mxGeometry x="1080" y="670" width="90" height="20" as="geometry" />
        </mxCell>
        <mxCell id="49YnO6ZuOoB5fUJODNFg-71" value="" style="fontSize=12;html=1;endArrow=ERzeroToMany;endFill=1;rounded=0;exitX=1;exitY=0.5;exitDx=0;exitDy=0;entryX=0.423;entryY=1.121;entryDx=0;entryDy=0;strokeColor=#003333;entryPerimeter=0;edgeStyle=orthogonalEdgeStyle;" parent="1" source="dxbgblpdHtPkPgYJWyGq-4" target="dxbgblpdHtPkPgYJWyGq-3" edge="1">
          <mxGeometry width="100" height="100" relative="1" as="geometry">
            <mxPoint x="655" y="430" as="sourcePoint" />
            <mxPoint x="745" y="180" as="targetPoint" />
          </mxGeometry>
        </mxCell>
        <mxCell id="49YnO6ZuOoB5fUJODNFg-73" value="" style="edgeStyle=orthogonalEdgeStyle;fontSize=12;html=1;endArrow=ERmany;rounded=0;exitX=0;exitY=0.5;exitDx=0;exitDy=0;strokeColor=#003333;" parent="1" source="dxbgblpdHtPkPgYJWyGq-4" edge="1">
          <mxGeometry width="100" height="100" relative="1" as="geometry">
            <mxPoint x="510" y="280" as="sourcePoint" />
            <mxPoint x="750" y="320" as="targetPoint" />
          </mxGeometry>
        </mxCell>
        <mxCell id="49YnO6ZuOoB5fUJODNFg-77" value="id_user" style="ellipse;whiteSpace=wrap;html=1;strokeColor=#00CC00;" parent="1" vertex="1">
          <mxGeometry x="540" y="260" width="70" height="20" as="geometry" />
        </mxCell>
        <mxCell id="49YnO6ZuOoB5fUJODNFg-78" value="id_notas" style="ellipse;whiteSpace=wrap;html=1;strokeColor=#3333FF;" parent="1" vertex="1">
          <mxGeometry x="620" y="240" width="70" height="20" as="geometry" />
        </mxCell>
        <mxCell id="49YnO6ZuOoB5fUJODNFg-79" value="id_user" style="ellipse;whiteSpace=wrap;html=1;strokeColor=#00CC00;" parent="1" vertex="1">
          <mxGeometry x="395" y="810" width="70" height="20" as="geometry" />
        </mxCell>
        <mxCell id="CApUH6odYuP_vs8Ka1Qk-1" value="" style="endArrow=none;html=1;rounded=0;exitX=0.599;exitY=0.017;exitDx=0;exitDy=0;exitPerimeter=0;entryX=0.142;entryY=0.999;entryDx=0;entryDy=0;entryPerimeter=0;strokeColor=#67AB9F;" parent="1" source="FwYhcU4Iek7xrjwLhx-S-41" target="FwYhcU4Iek7xrjwLhx-S-44" edge="1">
          <mxGeometry width="50" height="50" relative="1" as="geometry">
            <mxPoint x="540" y="580" as="sourcePoint" />
            <mxPoint x="360" y="770" as="targetPoint" />
          </mxGeometry>
        </mxCell>
        <mxCell id="oKhZsqi8M2Ex76uSdtci-1" value="fecha_nac" style="ellipse;whiteSpace=wrap;html=1;strokeColor=#00CC00;" parent="1" vertex="1">
          <mxGeometry x="30" y="490" width="70" height="20" as="geometry" />
        </mxCell>
        <mxCell id="oKhZsqi8M2Ex76uSdtci-3" value="" style="endArrow=none;html=1;rounded=0;exitX=1;exitY=0;exitDx=0;exitDy=0;entryX=0;entryY=0.5;entryDx=0;entryDy=0;strokeColor=#67AB9F;" parent="1" source="oKhZsqi8M2Ex76uSdtci-1" target="dxbgblpdHtPkPgYJWyGq-2" edge="1">
          <mxGeometry width="50" height="50" relative="1" as="geometry">
            <mxPoint x="150" y="480" as="sourcePoint" />
            <mxPoint x="380" y="420" as="targetPoint" />
          </mxGeometry>
        </mxCell>
        <mxCell id="oKhZsqi8M2Ex76uSdtci-4" value="GENERA" style="rhombus;whiteSpace=wrap;html=1;strokeColor=#1FE9FF;" parent="1" vertex="1">
          <mxGeometry x="265" y="555" width="130" height="80" as="geometry" />
        </mxCell>
        <mxCell id="oKhZsqi8M2Ex76uSdtci-5" value="" style="endArrow=none;html=1;rounded=0;exitX=1;exitY=0.5;exitDx=0;exitDy=0;entryX=0;entryY=0.25;entryDx=0;entryDy=0;strokeColor=#67AB9F;" parent="1" source="FwYhcU4Iek7xrjwLhx-S-18" target="dxbgblpdHtPkPgYJWyGq-2" edge="1">
          <mxGeometry width="50" height="50" relative="1" as="geometry">
            <mxPoint x="270" y="530" as="sourcePoint" />
            <mxPoint x="320" y="480" as="targetPoint" />
          </mxGeometry>
        </mxCell>
        <mxCell id="Sy4Rpw3ta0jwcYoyBp-N-2" value="" style="edgeStyle=orthogonalEdgeStyle;fontSize=12;html=1;endArrow=ERmandOne;rounded=0;entryX=0.682;entryY=-0.056;entryDx=0;entryDy=0;entryPerimeter=0;exitX=0;exitY=0.5;exitDx=0;exitDy=0;strokeColor=#1FE9FF;" parent="1" source="FwYhcU4Iek7xrjwLhx-S-39" target="dxbgblpdHtPkPgYJWyGq-2" edge="1">
          <mxGeometry width="100" height="100" relative="1" as="geometry">
            <mxPoint x="570" y="550" as="sourcePoint" />
            <mxPoint x="670" y="450" as="targetPoint" />
          </mxGeometry>
        </mxCell>
        <mxCell id="Sy4Rpw3ta0jwcYoyBp-N-3" value="" style="fontSize=12;html=1;endArrow=ERoneToMany;rounded=0;entryX=0;entryY=0.5;entryDx=0;entryDy=0;exitX=1;exitY=0.5;exitDx=0;exitDy=0;strokeColor=#1FE9FF;" parent="1" source="FwYhcU4Iek7xrjwLhx-S-39" target="49YnO6ZuOoB5fUJODNFg-35" edge="1">
          <mxGeometry width="100" height="100" relative="1" as="geometry">
            <mxPoint x="565" y="520" as="sourcePoint" />
            <mxPoint x="665" y="420" as="targetPoint" />
          </mxGeometry>
        </mxCell>
        <mxCell id="Sy4Rpw3ta0jwcYoyBp-N-4" value="id_review" style="ellipse;whiteSpace=wrap;html=1;strokeColor=#3333FF;" parent="1" vertex="1">
          <mxGeometry x="475" y="790" width="70" height="20" as="geometry" />
        </mxCell>
        <mxCell id="Sy4Rpw3ta0jwcYoyBp-N-7" value="" style="fontSize=12;html=1;endArrow=ERmandOne;rounded=0;entryX=0.676;entryY=1.03;entryDx=0;entryDy=0;entryPerimeter=0;exitX=0.285;exitY=0.211;exitDx=0;exitDy=0;exitPerimeter=0;strokeColor=#1FE9FF;" parent="1" source="oKhZsqi8M2Ex76uSdtci-4" target="dxbgblpdHtPkPgYJWyGq-2" edge="1">
          <mxGeometry width="100" height="100" relative="1" as="geometry">
            <mxPoint x="302" y="570" as="sourcePoint" />
            <mxPoint x="670" y="450" as="targetPoint" />
          </mxGeometry>
        </mxCell>
        <mxCell id="Sy4Rpw3ta0jwcYoyBp-N-8" value="" style="fontSize=12;html=1;endArrow=ERoneToMany;rounded=0;exitX=1;exitY=1;exitDx=0;exitDy=0;entryX=0.146;entryY=0;entryDx=0;entryDy=0;entryPerimeter=0;strokeColor=#1FE9FF;" parent="1" source="oKhZsqi8M2Ex76uSdtci-4" target="FwYhcU4Iek7xrjwLhx-S-44" edge="1">
          <mxGeometry width="100" height="100" relative="1" as="geometry">
            <mxPoint x="450" y="640" as="sourcePoint" />
            <mxPoint x="360" y="690" as="targetPoint" />
          </mxGeometry>
        </mxCell>
        <mxCell id="Sy4Rpw3ta0jwcYoyBp-N-9" value="" style="fontSize=12;html=1;endArrow=ERmandOne;rounded=0;exitX=0;exitY=0.5;exitDx=0;exitDy=0;strokeColor=#1FE9FF;" parent="1" source="49YnO6ZuOoB5fUJODNFg-47" target="dxbgblpdHtPkPgYJWyGq-2" edge="1">
          <mxGeometry width="100" height="100" relative="1" as="geometry">
            <mxPoint x="450" y="480" as="sourcePoint" />
            <mxPoint x="360" y="480" as="targetPoint" />
          </mxGeometry>
        </mxCell>
        <mxCell id="Sy4Rpw3ta0jwcYoyBp-N-10" value="" style="fontSize=12;html=1;endArrow=ERoneToMany;rounded=0;exitX=1;exitY=0.5;exitDx=0;exitDy=0;entryX=0;entryY=0.5;entryDx=0;entryDy=0;strokeColor=#1FE9FF;" parent="1" source="49YnO6ZuOoB5fUJODNFg-47" target="FwYhcU4Iek7xrjwLhx-S-1" edge="1">
          <mxGeometry width="100" height="100" relative="1" as="geometry">
            <mxPoint x="570" y="550" as="sourcePoint" />
            <mxPoint x="690" y="450" as="targetPoint" />
          </mxGeometry>
        </mxCell>
        <mxCell id="Sy4Rpw3ta0jwcYoyBp-N-11" value="" style="endArrow=none;html=1;rounded=0;exitX=0.5;exitY=0;exitDx=0;exitDy=0;entryX=0.526;entryY=1.013;entryDx=0;entryDy=0;entryPerimeter=0;strokeColor=#67AB9F;" parent="1" source="49YnO6ZuOoB5fUJODNFg-79" target="FwYhcU4Iek7xrjwLhx-S-44" edge="1">
          <mxGeometry width="50" height="50" relative="1" as="geometry">
            <mxPoint x="420" y="680" as="sourcePoint" />
            <mxPoint x="470" y="630" as="targetPoint" />
          </mxGeometry>
        </mxCell>
        <mxCell id="Sy4Rpw3ta0jwcYoyBp-N-12" value="" style="endArrow=none;html=1;rounded=0;entryX=0.937;entryY=1.009;entryDx=0;entryDy=0;entryPerimeter=0;exitX=0.411;exitY=-0.011;exitDx=0;exitDy=0;exitPerimeter=0;strokeColor=#67AB9F;" parent="1" source="Sy4Rpw3ta0jwcYoyBp-N-4" target="FwYhcU4Iek7xrjwLhx-S-44" edge="1">
          <mxGeometry width="50" height="50" relative="1" as="geometry">
            <mxPoint x="510" y="780" as="sourcePoint" />
            <mxPoint x="470" y="750" as="targetPoint" />
          </mxGeometry>
        </mxCell>
        <mxCell id="Sy4Rpw3ta0jwcYoyBp-N-13" value="DIRECCIÓN" style="rounded=1;whiteSpace=wrap;html=1;strokeColor=#99004D;" parent="1" vertex="1">
          <mxGeometry x="640" y="600" width="180" height="40" as="geometry" />
        </mxCell>
        <mxCell id="Sy4Rpw3ta0jwcYoyBp-N-16" value="" style="fontSize=12;html=1;endArrow=ERoneToMany;startArrow=ERmandOne;rounded=0;entryX=0;entryY=0.5;entryDx=0;entryDy=0;exitX=1;exitY=0.5;exitDx=0;exitDy=0;strokeColor=#1FE9FF;" parent="1" source="Sy4Rpw3ta0jwcYoyBp-N-13" target="FwYhcU4Iek7xrjwLhx-S-46" edge="1">
          <mxGeometry width="100" height="100" relative="1" as="geometry">
            <mxPoint x="750" y="520" as="sourcePoint" />
            <mxPoint x="850" y="420" as="targetPoint" />
          </mxGeometry>
        </mxCell>
        <mxCell id="Sy4Rpw3ta0jwcYoyBp-N-17" value="" style="fontSize=12;html=1;endArrow=ERoneToMany;startArrow=ERmandOne;rounded=0;entryX=0.097;entryY=1.004;entryDx=0;entryDy=0;exitX=0.444;exitY=0;exitDx=0;exitDy=0;strokeColor=#1FE9FF;exitPerimeter=0;entryPerimeter=0;" parent="1" source="Sy4Rpw3ta0jwcYoyBp-N-13" target="FwYhcU4Iek7xrjwLhx-S-1" edge="1">
          <mxGeometry width="100" height="100" relative="1" as="geometry">
            <mxPoint x="630" y="540" as="sourcePoint" />
            <mxPoint x="758" y="540" as="targetPoint" />
          </mxGeometry>
        </mxCell>
        <mxCell id="QfKSKPcKMtwOOk6tvcNi-1" value="1" style="text;strokeColor=none;fillColor=none;spacingLeft=4;spacingRight=4;overflow=hidden;rotatable=0;points=[[0,0.5],[1,0.5]];portConstraint=eastwest;fontSize=12;whiteSpace=wrap;html=1;" parent="1" vertex="1">
          <mxGeometry x="640" y="570" width="40" height="30" as="geometry" />
        </mxCell>
        <mxCell id="QfKSKPcKMtwOOk6tvcNi-2" value="" style="fontSize=12;html=1;endArrow=ERmandOne;rounded=0;strokeColor=#1FE9FF;entryX=1;entryY=0.5;entryDx=0;entryDy=0;exitX=0;exitY=0.5;exitDx=0;exitDy=0;" parent="1" source="FwYhcU4Iek7xrjwLhx-S-45" target="FwYhcU4Iek7xrjwLhx-S-1" edge="1">
          <mxGeometry width="100" height="100" relative="1" as="geometry">
            <mxPoint x="840" y="550" as="sourcePoint" />
            <mxPoint x="940" y="450" as="targetPoint" />
          </mxGeometry>
        </mxCell>
        <mxCell id="QfKSKPcKMtwOOk6tvcNi-3" value="" style="fontSize=12;html=1;endArrow=ERoneToMany;rounded=0;strokeColor=#1FE9FF;entryX=0.5;entryY=0;entryDx=0;entryDy=0;exitX=0.5;exitY=1;exitDx=0;exitDy=0;" parent="1" source="FwYhcU4Iek7xrjwLhx-S-45" target="FwYhcU4Iek7xrjwLhx-S-46" edge="1">
          <mxGeometry width="100" height="100" relative="1" as="geometry">
            <mxPoint x="840" y="550" as="sourcePoint" />
            <mxPoint x="940" y="450" as="targetPoint" />
          </mxGeometry>
        </mxCell>
        <mxCell id="QfKSKPcKMtwOOk6tvcNi-4" value="id_negocio" style="ellipse;whiteSpace=wrap;html=1;strokeColor=#CC6600;" parent="1" vertex="1">
          <mxGeometry x="695" y="260" width="100" height="20" as="geometry" />
        </mxCell>
        <mxCell id="QfKSKPcKMtwOOk6tvcNi-5" value="" style="endArrow=none;html=1;rounded=0;entryX=0.794;entryY=0.928;entryDx=0;entryDy=0;entryPerimeter=0;exitX=0.143;exitY=0;exitDx=0;exitDy=0;exitPerimeter=0;strokeColor=#67AB9F;" parent="1" source="49YnO6ZuOoB5fUJODNFg-35" target="49YnO6ZuOoB5fUJODNFg-77" edge="1">
          <mxGeometry width="50" height="50" relative="1" as="geometry">
            <mxPoint x="625" y="290" as="sourcePoint" />
            <mxPoint x="675" y="240" as="targetPoint" />
          </mxGeometry>
        </mxCell>
        <mxCell id="QfKSKPcKMtwOOk6tvcNi-6" value="" style="endArrow=none;html=1;rounded=0;entryX=0.5;entryY=1;entryDx=0;entryDy=0;strokeColor=#67AB9F;" parent="1" target="49YnO6ZuOoB5fUJODNFg-78" edge="1">
          <mxGeometry width="50" height="50" relative="1" as="geometry">
            <mxPoint x="655" y="300" as="sourcePoint" />
            <mxPoint x="705" y="270" as="targetPoint" />
          </mxGeometry>
        </mxCell>
        <mxCell id="QfKSKPcKMtwOOk6tvcNi-7" value="" style="endArrow=none;html=1;rounded=0;entryX=0.195;entryY=0.898;entryDx=0;entryDy=0;entryPerimeter=0;strokeColor=#67AB9F;" parent="1" target="QfKSKPcKMtwOOk6tvcNi-4" edge="1">
          <mxGeometry width="50" height="50" relative="1" as="geometry">
            <mxPoint x="715" y="300" as="sourcePoint" />
            <mxPoint x="765" y="270" as="targetPoint" />
          </mxGeometry>
        </mxCell>
        <mxCell id="QfKSKPcKMtwOOk6tvcNi-8" value="" style="fontSize=12;html=1;endArrow=ERoneToMany;rounded=0;entryX=0.132;entryY=1.018;entryDx=0;entryDy=0;entryPerimeter=0;strokeColor=#1FE9FF;exitX=0.5;exitY=0;exitDx=0;exitDy=0;" parent="1" source="QfKSKPcKMtwOOk6tvcNi-9" target="49YnO6ZuOoB5fUJODNFg-35" edge="1">
          <mxGeometry width="100" height="100" relative="1" as="geometry">
            <mxPoint x="600" y="390" as="sourcePoint" />
            <mxPoint x="895" y="330" as="targetPoint" />
          </mxGeometry>
        </mxCell>
        <mxCell id="QfKSKPcKMtwOOk6tvcNi-9" value="MUESTRA" style="rhombus;whiteSpace=wrap;html=1;strokeColor=#1FE9FF;" parent="1" vertex="1">
          <mxGeometry x="530" y="370" width="130" height="80" as="geometry" />
        </mxCell>
        <mxCell id="QfKSKPcKMtwOOk6tvcNi-10" value="GENERA" style="rhombus;whiteSpace=wrap;html=1;strokeColor=#1FE9FF;" parent="1" vertex="1">
          <mxGeometry x="440" y="560" width="130" height="80" as="geometry" />
        </mxCell>
        <mxCell id="QfKSKPcKMtwOOk6tvcNi-11" value="" style="endArrow=none;html=1;rounded=0;entryX=0.5;entryY=1;entryDx=0;entryDy=0;exitX=0.5;exitY=0;exitDx=0;exitDy=0;strokeColor=#1FE9FF;" parent="1" source="QfKSKPcKMtwOOk6tvcNi-10" target="QfKSKPcKMtwOOk6tvcNi-9" edge="1">
          <mxGeometry width="50" height="50" relative="1" as="geometry">
            <mxPoint x="570" y="530" as="sourcePoint" />
            <mxPoint x="620" y="480" as="targetPoint" />
          </mxGeometry>
        </mxCell>
        <mxCell id="QfKSKPcKMtwOOk6tvcNi-12" value="" style="fontSize=12;html=1;endArrow=ERmandOne;rounded=0;entryX=0.59;entryY=0;entryDx=0;entryDy=0;entryPerimeter=0;exitX=0;exitY=0.5;exitDx=0;exitDy=0;strokeColor=#1FE9FF;" parent="1" source="QfKSKPcKMtwOOk6tvcNi-10" target="FwYhcU4Iek7xrjwLhx-S-44" edge="1">
          <mxGeometry width="100" height="100" relative="1" as="geometry">
            <mxPoint x="540" y="580" as="sourcePoint" />
            <mxPoint x="640" y="480" as="targetPoint" />
          </mxGeometry>
        </mxCell>
        <mxCell id="xqZ2yZnYXrHqTKj1KVOL-1" value="1" style="text;strokeColor=none;fillColor=none;spacingLeft=4;spacingRight=4;overflow=hidden;rotatable=0;points=[[0,0.5],[1,0.5]];portConstraint=eastwest;fontSize=12;whiteSpace=wrap;html=1;" vertex="1" parent="1">
          <mxGeometry x="485" y="690" width="40" height="30" as="geometry" />
        </mxCell>
        <mxCell id="xqZ2yZnYXrHqTKj1KVOL-3" value="" style="fontSize=12;html=1;endArrow=ERmandOne;rounded=0;exitX=1;exitY=0.5;exitDx=0;exitDy=0;edgeStyle=orthogonalEdgeStyle;entryX=0.444;entryY=0;entryDx=0;entryDy=0;entryPerimeter=0;strokeColor=#1FE9FF;" edge="1" parent="1" source="QfKSKPcKMtwOOk6tvcNi-9" target="FwYhcU4Iek7xrjwLhx-S-1">
          <mxGeometry width="100" height="100" relative="1" as="geometry">
            <mxPoint x="690" y="420" as="sourcePoint" />
            <mxPoint x="780" y="410" as="targetPoint" />
          </mxGeometry>
        </mxCell>
        <mxCell id="xqZ2yZnYXrHqTKj1KVOL-4" value="id_direccion" style="ellipse;whiteSpace=wrap;html=1;strokeColor=#99004D;" vertex="1" parent="1">
          <mxGeometry x="550" y="650" width="90" height="20" as="geometry" />
        </mxCell>
        <mxCell id="xqZ2yZnYXrHqTKj1KVOL-5" value="pais" style="ellipse;whiteSpace=wrap;html=1;strokeColor=#99004D;" vertex="1" parent="1">
          <mxGeometry x="585" y="680" width="70" height="20" as="geometry" />
        </mxCell>
        <mxCell id="xqZ2yZnYXrHqTKj1KVOL-6" value="ciudad" style="ellipse;whiteSpace=wrap;html=1;strokeColor=#99004D;" vertex="1" parent="1">
          <mxGeometry x="655" y="710" width="70" height="20" as="geometry" />
        </mxCell>
        <mxCell id="xqZ2yZnYXrHqTKj1KVOL-7" value="barrio" style="ellipse;whiteSpace=wrap;html=1;strokeColor=#99004D;" vertex="1" parent="1">
          <mxGeometry x="725" y="690" width="70" height="20" as="geometry" />
        </mxCell>
        <mxCell id="xqZ2yZnYXrHqTKj1KVOL-12" value="" style="endArrow=none;html=1;rounded=0;strokeColor=#67AB9F;exitX=1;exitY=0;exitDx=0;exitDy=0;entryX=0.082;entryY=1.025;entryDx=0;entryDy=0;entryPerimeter=0;" edge="1" parent="1" source="xqZ2yZnYXrHqTKj1KVOL-5" target="Sy4Rpw3ta0jwcYoyBp-N-13">
          <mxGeometry width="50" height="50" relative="1" as="geometry">
            <mxPoint x="660" y="660" as="sourcePoint" />
            <mxPoint x="660" y="610" as="targetPoint" />
          </mxGeometry>
        </mxCell>
        <mxCell id="xqZ2yZnYXrHqTKj1KVOL-13" value="" style="endArrow=none;html=1;rounded=0;strokeColor=#67AB9F;exitX=0.5;exitY=0;exitDx=0;exitDy=0;entryX=0.272;entryY=1.011;entryDx=0;entryDy=0;entryPerimeter=0;" edge="1" parent="1" source="xqZ2yZnYXrHqTKj1KVOL-6" target="Sy4Rpw3ta0jwcYoyBp-N-13">
          <mxGeometry width="50" height="50" relative="1" as="geometry">
            <mxPoint x="690" y="690" as="sourcePoint" />
            <mxPoint x="690" y="640" as="targetPoint" />
          </mxGeometry>
        </mxCell>
        <mxCell id="xqZ2yZnYXrHqTKj1KVOL-14" value="" style="endArrow=none;html=1;rounded=0;strokeColor=#67AB9F;exitX=0.5;exitY=0;exitDx=0;exitDy=0;" edge="1" parent="1" source="xqZ2yZnYXrHqTKj1KVOL-4">
          <mxGeometry width="50" height="50" relative="1" as="geometry">
            <mxPoint x="639.43" y="685" as="sourcePoint" />
            <mxPoint x="639" y="630" as="targetPoint" />
          </mxGeometry>
        </mxCell>
        <mxCell id="xqZ2yZnYXrHqTKj1KVOL-15" value="" style="endArrow=none;html=1;rounded=0;strokeColor=#67AB9F;entryX=0.75;entryY=1;entryDx=0;entryDy=0;" edge="1" parent="1" target="Sy4Rpw3ta0jwcYoyBp-N-13">
          <mxGeometry width="50" height="50" relative="1" as="geometry">
            <mxPoint x="836.5438746886196" y="710.2962496426783" as="sourcePoint" />
            <mxPoint x="720" y="610" as="targetPoint" />
          </mxGeometry>
        </mxCell>
        <mxCell id="xqZ2yZnYXrHqTKj1KVOL-16" value="" style="endArrow=none;html=1;rounded=0;strokeColor=#67AB9F;exitX=0.5;exitY=0;exitDx=0;exitDy=0;entryX=1;entryY=1;entryDx=0;entryDy=0;" edge="1" parent="1" target="Sy4Rpw3ta0jwcYoyBp-N-13">
          <mxGeometry width="50" height="50" relative="1" as="geometry">
            <mxPoint x="855" y="660" as="sourcePoint" />
            <mxPoint x="789.71" y="620" as="targetPoint" />
          </mxGeometry>
        </mxCell>
        <mxCell id="xqZ2yZnYXrHqTKj1KVOL-17" value="" style="endArrow=none;html=1;rounded=0;strokeColor=#67AB9F;entryX=0.6;entryY=1.014;entryDx=0;entryDy=0;entryPerimeter=0;" edge="1" parent="1" target="Sy4Rpw3ta0jwcYoyBp-N-13">
          <mxGeometry width="50" height="50" relative="1" as="geometry">
            <mxPoint x="750" y="690" as="sourcePoint" />
            <mxPoint x="750" y="700" as="targetPoint" />
          </mxGeometry>
        </mxCell>
        <mxCell id="xqZ2yZnYXrHqTKj1KVOL-18" value="numero_domicilio" style="ellipse;whiteSpace=wrap;html=1;strokeColor=#99004D;" vertex="1" parent="1">
          <mxGeometry x="795" y="705" width="120" height="30" as="geometry" />
        </mxCell>
        <mxCell id="xqZ2yZnYXrHqTKj1KVOL-19" value="calle" style="ellipse;whiteSpace=wrap;html=1;strokeColor=#99004D;" vertex="1" parent="1">
          <mxGeometry x="830" y="660" width="70" height="20" as="geometry" />
        </mxCell>
      </root>
    </mxGraphModel>
  </diagram>
</mxfile>
